<svg xmlns="http://www.w3.org/2000/svg" viewBox="0 0 216 306"><defs><style>.cls-1{fill:none;}.cls-2{fill:#eb3d3c;}.cls-3{fill:#ee7c96;}.cls-4{fill:#105e92;}.cls-5{fill:#f7af4d;}.cls-6{fill:#83cab2;}.cls-7{fill:#1fa755;}.cls-8{fill:#f15a32;}.cls-9{fill:#fff;}</style></defs><title>ryan_banner</title><g id="Layer_1" data-name="Layer 1"><path id="R" class="cls-1" d="M585,435.83v97h9V480.61l45,.22v52h9V480.61h9V435.83Zm63,37.32H594V443.29h54Z" transform="translate(-558 -435.83)"/><polygon class="cls-2" points="90 7.46 90 37.32 36 37.32 36 29.85 90 7.46"/><polygon class="cls-3" points="36 29.85 36 7.46 90 7.46 36 29.85"/><polygon class="cls-4" points="99 0 99 44.78 90 44.78 90 97.02 153 84.97 153 74.63 162 74.63 162 83.24 207 74.63 216 74.63 99 0"/><polygon class="cls-5" points="36 63 81 97.02 90 97.02 207 74.63 72 134.34 27 97.02 36 97.02 36 63"/><polygon class="cls-6" points="207 74.63 72 134.34 72 231.37 180 119.42 166.5 119.42 207 74.63"/><polygon class="cls-2" points="207 74.63 207 111.95 173.25 111.95 207 74.63"/><polygon id="Y" class="cls-1" points="153 74.63 162 74.63 162 111.95 207 111.95 207 74.63 216 74.63 216 119.42 189 119.42 189 179.12 180 179.12 180 119.42 153 119.42 153 74.63"/><polygon class="cls-4" points="189 119.42 189 130.61 216 119.42 189 119.42"/><polygon class="cls-7" points="27 97.02 72 134.34 0 134.34 27 97.02"/><polygon class="cls-4" points="9 164.19 54 141.81 9 141.81 9 164.19"/><polygon class="cls-2" points="9 164.19 9 231.37 63 231.37 63 141.81 54 141.81 9 164.19"/><path id="A" class="cls-1" d="M558,570.17v97h9V615h54V667.2h9v-97Zm62.7,37.24-53.37-.21-.42-29.57H620.7Z" transform="translate(-558 -435.83)"/><polygon class="cls-8" points="72 231.37 180 119.42 180 179.12 135 216.44 72 231.37"/><polygon class="cls-5" points="72 231.37 135 216.44 135 268.68 72 231.37"/><polygon class="cls-7" points="135 216.44 207 216.44 189 179.12 180 179.12 135 216.44"/><polygon class="cls-4" points="0 231.37 72 231.37 135 306 0 231.37"/><polygon class="cls-6" points="72 231.37 135 268.68 135 306 72 231.37"/><polygon class="cls-2" points="144 231.37 144 276.15 198 306 144 231.37"/><polygon class="cls-3" points="144 216.44 198 291.07 198 216.44 144 216.44"/><polygon id="N" class="cls-1" points="135 306 144 306 144 231.37 198 306 207 306 207 216.44 198 216.44 198 291.07 144 216.44 135 216.44 135 306"/><g id="RYAN"><path class="cls-9" d="M585,435.83v97h9V480.61h45v52.24h9V480.61h9V435.83Zm63,37.31H594V443.29h54Z" transform="translate(-558 -435.83)"/><polygon class="cls-9" points="216 74.63 216 119.42 189 119.42 189 179.12 180 179.12 180 119.42 153 119.42 153 74.63 162 74.63 162 111.95 207 111.95 207 74.63 216 74.63"/><path class="cls-9" d="M558,570.17v97h9V615h54v52.24h9v-97Zm63,37.32H567V577.63h54Z" transform="translate(-558 -435.83)"/><polygon class="cls-9" points="135 216.44 135 306 144 306 144 231.37 198 306 207 306 207 216.44 198 216.44 198 291.07 144 216.44 135 216.44"/></g><polygon class="cls-3" points="36 44.78 81 44.78 81 97.02 36 63 36 44.78"/></g></svg>